<?xml version="1.0" encoding="UTF-8" standalone="no"?>
<!-- Created with Inkscape (http://www.inkscape.org/) -->

<svg
   version="1.1"
   id="svg55"
   width="508.19858"
   height="535.79602"
   viewBox="0 0 508.19859 535.79602"
   sodipodi:docname="bolam-logo.png"
   inkscape:version="1.2.2 (b0a8486541, 2022-12-01)"
   inkscape:dataloss="true"
   inkscape:export-filename="bolam-logo.png"
   inkscape:export-xdpi="96"
   inkscape:export-ydpi="96"
   xmlns:inkscape="http://www.inkscape.org/namespaces/inkscape"
   xmlns:sodipodi="http://sodipodi.sourceforge.net/DTD/sodipodi-0.dtd"
   xmlns="http://www.w3.org/2000/svg"
   xmlns:svg="http://www.w3.org/2000/svg">
  <defs
     id="defs59" />
  <sodipodi:namedview
     id="namedview57"
     pagecolor="#ffffff"
     bordercolor="#000000"
     borderopacity="0.25"
     inkscape:showpageshadow="2"
     inkscape:pageopacity="0.0"
     inkscape:pagecheckerboard="0"
     inkscape:deskcolor="#d1d1d1"
     showgrid="false"
     shape-rendering="crispEdges"
     showguides="true"
     inkscape:zoom="0.55173664"
     inkscape:cx="251.02556"
     inkscape:cy="486.64522"
     inkscape:window-width="1880"
     inkscape:window-height="1008"
     inkscape:window-x="20"
     inkscape:window-y="52"
     inkscape:window-maximized="1"
     inkscape:current-layer="layer1" />
  <g
     inkscape:groupmode="layer"
     id="layer1"
     inkscape:label="Path"
     transform="translate(-255.04836,-126.89864)">
    <path
       style="display:inline;fill:#232222;fill-opacity:1;stroke:none;stroke-linecap:round;stroke-linejoin:round;stroke-opacity:1;paint-order:normal"
       d="m 633.91725,127.03089 -243.30767,-0.13223 c -98.25411,-0.0534 -135.60919,97.51031 -135.56117,126.08037 l 0.32481,193.26016 c 1.20167,13.03723 16.68303,97.40006 112.65908,122.19243 l -25.01601,78.91016 c -4.33717,13.68112 13.79302,16.89236 16.44177,14.74244 l 114.09263,-92.606 160.4367,-0.30823 z"
       id="path2595"
       sodipodi:nodetypes="cssccssccc" />
    <path
       style="fill:#aebcaf;fill-opacity:1;stroke:none;stroke-linecap:round;stroke-linejoin:round;stroke-opacity:1;paint-order:normal"
       d="m 634.1691,127.22593 c 66.87332,1.50885 119.05526,56.59754 128.75386,128.99116 -0.72671,54.25162 0.65547,126.07699 0.24678,183.87467 -4.83976,59.58362 -54.16632,114.36554 -110.55933,127.59436 l -33.62666,71.62045 c -1.3739,2.92624 -9.47073,2.17933 -10.06574,-2.15743 l -9.29732,-67.76444 c -1.59361,-13.69816 -2.22325,-23.4143 -6.78134,-26.47821 -8.45346,-5.68235 -62.47799,-10.31267 -69.33464,-55.37662 -8.26155,-54.29738 11.37149,-32.91263 40.69311,-48.80224 15.18036,-8.22635 2.09979,-20.11099 -6.95392,-20.11933 -3.81369,-0.004 -44.01772,3.42005 -42.33875,-4.4103 8.33101,-38.85397 5.16478,-42.25932 -1.14269,-42.86258 -14.82385,-1.41777 -35.52268,5.69436 -39.11358,-14.0209 34.64986,-80.45775 25.28089,-87.75178 33.83679,-122.6307 23.43184,-84.96356 103.97455,-107.9477 125.68343,-107.45789 z"
       id="path305"
       sodipodi:nodetypes="scccsscssssssccs" />
  </g>
</svg>
